<svg width="220" height="48" viewBox="0 0 220 48" xmlns="http://www.w3.org/2000/svg">
  <style>
    @import url('https://fonts.googleapis.com/css2?family=Sora:wght@400&amp;display=swap');
  </style>
  <!-- Sealed prism icon -->
  <rect x="0" y="0" width="48" height="48" rx="12" fill="#09090b"/>
  <circle cx="24" cy="8.3" r="3.2" fill="#fafafa"/>
  <line x1="24" y1="11.5" x2="9.2" y2="24" stroke="#fafafa" stroke-width="2" stroke-linecap="round" opacity="0.22"/>
  <line x1="24" y1="11.5" x2="13.8" y2="24" stroke="#fafafa" stroke-width="2" stroke-linecap="round" opacity="0.38"/>
  <line x1="24" y1="11.5" x2="19" y2="24" stroke="#fafafa" stroke-width="2" stroke-linecap="round" opacity="0.56"/>
  <line x1="24" y1="11.5" x2="24" y2="24" stroke="#fafafa" stroke-width="2.4" stroke-linecap="round" opacity="0.82"/>
  <line x1="24" y1="11.5" x2="29" y2="24" stroke="#fafafa" stroke-width="2" stroke-linecap="round" opacity="0.56"/>
  <line x1="24" y1="11.5" x2="34.2" y2="24" stroke="#fafafa" stroke-width="2" stroke-linecap="round" opacity="0.38"/>
  <line x1="24" y1="11.5" x2="38.8" y2="24" stroke="#fafafa" stroke-width="2" stroke-linecap="round" opacity="0.22"/>
  <line x1="9.2" y1="24" x2="24" y2="36.5" stroke="#fafafa" stroke-width="2" stroke-linecap="round" opacity="0.22"/>
  <line x1="13.8" y1="24" x2="24" y2="36.5" stroke="#fafafa" stroke-width="2" stroke-linecap="round" opacity="0.38"/>
  <line x1="19" y1="24" x2="24" y2="36.5" stroke="#fafafa" stroke-width="2" stroke-linecap="round" opacity="0.56"/>
  <line x1="24" y1="24" x2="24" y2="36.5" stroke="#fafafa" stroke-width="2.4" stroke-linecap="round" opacity="0.82"/>
  <line x1="29" y1="24" x2="24" y2="36.5" stroke="#fafafa" stroke-width="2" stroke-linecap="round" opacity="0.56"/>
  <line x1="34.2" y1="24" x2="24" y2="36.5" stroke="#fafafa" stroke-width="2" stroke-linecap="round" opacity="0.38"/>
  <line x1="38.8" y1="24" x2="24" y2="36.5" stroke="#fafafa" stroke-width="2" stroke-linecap="round" opacity="0.22"/>
  <circle cx="24" cy="39.7" r="3.2" fill="#fafafa"/>
  <!-- Wordmark -->
  <text x="64" y="32" font-family="'Sora', sans-serif" font-weight="400" font-size="28" letter-spacing="-0.84" fill="#09090b">sukgo</text>
</svg>
