<svg width="512" height="512" viewBox="0 0 52 52" xmlns="http://www.w3.org/2000/svg">
  <rect width="52" height="52" rx="13" fill="#fafafa"/>
  <circle cx="26" cy="9" r="3.5" fill="#09090b"/>
  <line x1="26" y1="12.5" x2="10" y2="26" stroke="#09090b" stroke-width="2.2" stroke-linecap="round" opacity="0.22"/>
  <line x1="26" y1="12.5" x2="15" y2="26" stroke="#09090b" stroke-width="2.2" stroke-linecap="round" opacity="0.38"/>
  <line x1="26" y1="12.5" x2="20.5" y2="26" stroke="#09090b" stroke-width="2.2" stroke-linecap="round" opacity="0.56"/>
  <line x1="26" y1="12.5" x2="26" y2="26" stroke="#09090b" stroke-width="2.6" stroke-linecap="round" opacity="0.82"/>
  <line x1="26" y1="12.5" x2="31.5" y2="26" stroke="#09090b" stroke-width="2.2" stroke-linecap="round" opacity="0.56"/>
  <line x1="26" y1="12.5" x2="37" y2="26" stroke="#09090b" stroke-width="2.2" stroke-linecap="round" opacity="0.38"/>
  <line x1="26" y1="12.5" x2="42" y2="26" stroke="#09090b" stroke-width="2.2" stroke-linecap="round" opacity="0.22"/>
  <line x1="10" y1="26" x2="26" y2="39.5" stroke="#09090b" stroke-width="2.2" stroke-linecap="round" opacity="0.22"/>
  <line x1="15" y1="26" x2="26" y2="39.5" stroke="#09090b" stroke-width="2.2" stroke-linecap="round" opacity="0.38"/>
  <line x1="20.5" y1="26" x2="26" y2="39.5" stroke="#09090b" stroke-width="2.2" stroke-linecap="round" opacity="0.56"/>
  <line x1="26" y1="26" x2="26" y2="39.5" stroke="#09090b" stroke-width="2.6" stroke-linecap="round" opacity="0.82"/>
  <line x1="31.5" y1="26" x2="26" y2="39.5" stroke="#09090b" stroke-width="2.2" stroke-linecap="round" opacity="0.56"/>
  <line x1="37" y1="26" x2="26" y2="39.5" stroke="#09090b" stroke-width="2.2" stroke-linecap="round" opacity="0.38"/>
  <line x1="42" y1="26" x2="26" y2="39.5" stroke="#09090b" stroke-width="2.2" stroke-linecap="round" opacity="0.22"/>
  <circle cx="26" cy="43" r="3.5" fill="#09090b"/>
</svg>
